<?xml version="1.0" encoding="utf-8"?>
<!-- Generator: Adobe Illustrator 24.1.2, SVG Export Plug-In . SVG Version: 6.00 Build 0)  -->
<svg version="1.1" id="Слой_1" xmlns="http://www.w3.org/2000/svg" xmlns:xlink="http://www.w3.org/1999/xlink" x="0px" y="0px"
	 viewBox="0 0 939.4 352.8" style="enable-background:new 0 0 939.4 352.8;" xml:space="preserve">
<style type="text/css">
	.st0{fill-rule:evenodd;clip-rule:evenodd;fill:#FFFFFF;}
	.st1{fill:#FFFFFF;}
	.st2{fill:#F48F21;}
</style>
<g>
	<path class="st0" d="M175.5,204.3c-0.7,0.8-1.7,1.5-2.7,1.9c-2.6,1-5.5,0.5-7.6-1.3c-1.4-1.3-2.3-3.1-2.4-5
		c-0.1-1.9,0.5-3.8,1.8-5.3c0.7-0.8,1.7-1.5,2.7-1.9c0.9-0.4,1.8-0.5,2.8-0.5c1.8,0,3.5,0.7,4.8,1.8c1.5,1.3,2.3,3.1,2.4,5
		C177.4,201,176.8,202.9,175.5,204.3 M182.2,185.8c-3.4-3-7.7-4.6-12.1-4.6c-2.4,0-4.7,0.5-6.9,1.4c-2.6,1.1-4.9,2.7-6.8,4.8
		c-3.2,3.6-4.9,8.3-4.6,13.2c0.3,4.9,2.5,9.4,6.1,12.6c3.4,3,7.7,4.6,12.1,4.6c2.4,0,4.7-0.5,6.9-1.4c2.6-1.1,4.9-2.7,6.8-4.8
		c3.2-3.7,4.9-8.3,4.6-13.2C188,193.5,185.9,189,182.2,185.8"/>
	<path class="st0" d="M205.6,231.1c11.5-12.9,15.1-31,9.4-47.3c-0.3-0.9-0.8-1.7-1.5-2.3c-1.5-1.3-3.5-1.8-5.5-1.1l-0.2,0.1
		c-2.7,1.1-4.1,4.1-3.1,6.9c4.4,12.5,1.6,26.5-7.2,36.4c-3.8,4.2-8.3,7.5-13.6,9.6c-4.5,1.8-9.1,2.7-13.8,2.7
		c-8.9,0-17.5-3.3-24.2-9.3c-7.3-6.5-11.6-15.4-12.2-25.2c-0.6-9.8,2.7-19.2,9.2-26.5c3.8-4.3,8.4-7.5,13.6-9.6
		c3.9-1.6,8-2.4,12.2-2.6c3-0.1,5.4-2.7,5.3-5.7c-0.1-1.5-0.7-2.8-1.8-3.8s-2.5-1.5-4-1.4c-5.5,0.2-10.9,1.4-15.9,3.4
		c-6.8,2.7-12.7,7-17.7,12.5c-17.5,19.6-15.7,49.8,3.9,67.2c8.7,7.8,20,12.1,31.6,12.1c6.2,0,12.2-1.2,18-3.5
		C194.8,240.8,200.7,236.6,205.6,231.1"/>
	<path class="st0" d="M187.1,167.1c3,1.6,5.9,3.7,8.3,6c1.1,1,2.4,1.5,3.8,1.5c0.7,0,1.4-0.1,2-0.4c0.7-0.3,1.4-0.7,1.9-1.3
		c2.1-2.2,2-5.7-0.2-7.8c-0.4-0.4-0.9-0.8-1.3-1.2c-2.9-2.6-6.1-4.8-9.5-6.6c-1.4-0.7-3.1-0.8-4.6-0.2c-1.2,0.5-2.2,1.4-2.8,2.5
		c-0.7,1.3-0.8,2.8-0.4,4.2C184.9,165.3,185.8,166.4,187.1,167.1"/>
	<path class="st0" d="M206.8,258.7c-1.7-1.5-4.2-1.8-6.2-0.8c-2.7,1.4-5.5,2.6-8.5,3.7l-0.2,0.1c-2.7,1.1-4.1,4.2-3.1,7
		c0.5,1.4,1.5,2.5,2.8,3.1c0.8,0.4,1.6,0.5,2.4,0.5c0.6,0,1.2-0.1,1.8-0.3c3.4-1.2,6.7-2.6,9.9-4.3c2.7-1.4,3.7-4.7,2.3-7.4
		C207.7,259.7,207.3,259.1,206.8,258.7"/>
	<path class="st0" d="M221.2,142c-14.1-12.6-32.2-19.5-50.9-19.5c-5.1,0-10.3,0.5-15.4,1.5c-0.3,0.1-0.7,0.2-1,0.3
		c-2.5,1-3.9,3.6-3.3,6.2c0.3,1.4,1.1,2.7,2.4,3.5c1.2,0.8,2.7,1.1,4.1,0.8c4.4-0.9,8.8-1.3,13.3-1.3c16,0,31.5,5.9,43.6,16.7
		c13.1,11.7,20.9,27.8,22,45.4c1,17.6-4.8,34.5-16.5,47.7c-1,1.1-2.1,2.3-3.3,3.4c-1.1,1-1.6,2.4-1.7,3.9c0,1.5,0.5,2.9,1.6,3.9
		c1,1.1,2.5,1.7,4,1.7c0.7,0,1.4-0.1,2.1-0.4c0.7-0.3,1.3-0.7,1.8-1.2c1.3-1.2,2.6-2.6,3.8-4c13.6-15.3,20.5-35.1,19.3-55.6
		C245.6,174.4,236.5,155.6,221.2,142"/>
	<path class="st0" d="M172.7,265.3c-17.1,0.7-33.7-5.3-46.5-16.6c-13.1-11.7-20.9-27.8-22-45.4c-1-17.6,4.8-34.5,16.5-47.7
		c4.9-5.5,10.5-10.1,16.9-13.6c1.3-0.7,2.2-1.9,2.6-3.3c0.4-1.4,0.2-2.9-0.5-4.2c-0.3-0.5-0.7-1-1.1-1.4c-1.5-1.4-3.8-1.8-5.7-1
		c-0.2,0.1-0.4,0.2-0.6,0.3c-7.4,4.2-14,9.5-19.7,15.9c-13.6,15.3-20.5,35.1-19.3,55.6s10.3,39.4,25.6,53
		c14.1,12.5,32.2,19.5,51.1,19.5c1.1,0,2.1,0,3.2-0.1c3-0.1,5.4-2.8,5.3-5.7c-0.1-1.5-0.7-2.8-1.8-3.8
		C175.6,265.8,174.2,265.3,172.7,265.3"/>
	<path class="st0" d="M268.3,160.6c-1-0.9-2.3-1.4-3.7-1.4c-0.6,0-1.3,0.1-1.9,0.3l-0.1,0.1c-2.9,1.2-4.2,4.2-3.2,7
		c3.5,9.6,5.5,19.6,5.8,29.8c0,1.5,0.7,2.8,1.7,3.8s2.4,1.5,3.8,1.5h0.2c3-0.1,5.4-2.7,5.3-5.7c-0.4-11.4-2.5-22.6-6.5-33.3
		C269.5,161.9,269,161.2,268.3,160.6"/>
	<path class="st0" d="M259.8,142.4c-5.3-8.3-11.7-15.8-19.1-22.4c-13.5-12-29.8-20.4-47.3-24.3c-1.1-0.2-2.2-0.2-3.3,0.3
		c-1.7,0.7-2.9,2.1-3.3,3.9c-0.7,3,1.2,5.9,4.2,6.6c15.7,3.5,30.3,11,42.4,21.8c6.6,5.9,12.4,12.6,17.1,20c1,1.6,2.8,2.6,4.6,2.6
		c0.7,0,1.4-0.1,2.1-0.4c0.3-0.1,0.6-0.3,0.9-0.5C260.6,148.4,261.4,145,259.8,142.4"/>
	<path class="st0" d="M161.7,104.6c0.1,0,0.3,0,0.5,0c2.7-0.2,5.4-0.3,8-0.3c0.5,0,0.9,0,1.5,0c2.9,0,5.5-2.5,5.5-5.4
		c0-1.6-0.7-3.1-1.8-4.2c-1-0.9-2.3-1.4-3.6-1.4c-3.5,0-7,0.1-10.5,0.4c-0.6,0-1.1,0.2-1.6,0.4c-2.2,0.9-3.6,3.1-3.4,5.6
		C156.4,102.4,158.8,104.6,161.7,104.6"/>
	<path class="st0" d="M283.5,125.2c-6.2-9.5-13.7-18.3-22.2-26c-8.4-7.7-17.7-14.2-27.7-19.5c-1.4-0.7-3.1-0.8-4.6-0.3
		c-1.2,0.5-2.2,1.4-2.9,2.6c-0.7,1.3-0.8,2.8-0.4,4.2c0.4,1.4,1.4,2.5,2.7,3.2c18.5,9.8,34.4,24.3,45.9,41.8c1,1.6,2.7,2.5,4.6,2.5
		c0.7,0,1.4-0.1,2-0.4c0.4-0.1,0.7-0.3,1-0.5c1.2-0.8,2.1-2,2.4-3.5C284.6,127.9,284.3,126.4,283.5,125.2"/>
</g>
<g>
	<path class="st1" d="M807.5,204.6c-21.5,0-39-17.5-39-39s17.5-39,39-39s39,17.5,39,39c0,1.6-0.1,3.3-0.3,4.9
		c-0.4,3-3.1,5.1-6.1,4.7c-3-0.4-5.1-3.1-4.7-6.1c0.1-1.2,0.2-2.4,0.2-3.6c0-15.5-12.6-28.1-28.1-28.1s-28.1,12.6-28.1,28.1
		s12.6,28.1,28.1,28.1c1.3,0,2.5-0.1,3.8-0.3c3-0.4,5.7,1.7,6.1,4.7c0.4,3-1.7,5.7-4.7,6.1C811,204.5,809.3,204.6,807.5,204.6z"/>
</g>
<g>
	<path class="st2" d="M841.1,204.6c-1.4,0-2.8-0.5-3.8-1.6l-19.8-19.8c-2.1-2.1-2.1-5.6,0-7.7c2.1-2.1,5.6-2.1,7.7,0l19.8,19.8
		c2.1,2.1,2.1,5.6,0,7.7C843.8,204.1,842.5,204.6,841.1,204.6z"/>
</g>
<g>
	<path class="st1" d="M329.1,203.8c-3,0-5.4-2.4-5.4-5.4v-32.8c0-3,2.4-5.4,5.4-5.4H351c6,0,10.9-4.9,10.9-10.9s-4.9-10.9-10.9-10.9
		h-21.9c-3,0-5.4-2.4-5.4-5.4s2.4-5.4,5.4-5.4H351c12,0,21.8,9.8,21.8,21.8s-9.8,21.8-21.8,21.8h-16.5v27.4
		C334.5,201.4,332.1,203.8,329.1,203.8z"/>
</g>
<g>
	<path class="st1" d="M549.5,203.8c-1.8,0-3.5-0.9-4.6-2.5l-21.6-32.8c-1.1-1.7-1.2-3.8-0.2-5.6c0.9-1.8,2.8-2.9,4.8-2.9h0.5
		c6,0,10.9-4.9,10.9-10.9s-4.9-10.9-10.9-10.9h-16.5v60c0,3-2.4,5.4-5.4,5.4s-5.4-2.4-5.4-5.4v-65.5c0-3,2.4-5.4,5.4-5.4h21.9
		c12,0,21.8,9.8,21.8,21.8c0,9-5.5,16.7-13.3,20l17.2,26.1c1.7,2.5,1,5.9-1.6,7.5C551.6,203.5,550.5,203.8,549.5,203.8z"/>
</g>
<g>
	<path class="st1" d="M706.9,204.6c-21.5,0-39-17.5-39-39s17.5-39,39-39c10.4,0,20.2,4.1,27.6,11.4c1,1,1.6,2.4,1.6,3.8
		c0,1.4-0.6,2.8-1.6,3.8l-32.7,32.7c-2.1,2.1-5.6,2.1-7.7,0c-2.1-2.1-2.1-5.6,0-7.7l28.5-28.5c-4.6-3.1-10-4.8-15.7-4.8
		c-15.5,0-28.1,12.6-28.1,28.1s12.6,28.1,28.1,28.1c7.5,0,14.6-2.9,19.9-8.2c2.1-2.1,5.6-2.1,7.7,0c2.1,2.1,2.1,5.6,0,7.7
		C727.2,200.6,717.4,204.6,706.9,204.6z"/>
</g>
<g>
	<path class="st1" d="M611.5,205.2c-9.5,0-16.3-3.7-20.3-6.7c-2.4-1.8-2.8-5.2-1-7.6c1.8-2.4,5.2-2.8,7.6-1
		c2.7,2.1,7.2,4.5,13.7,4.5c1.2,0,11.6-0.3,11.6-9.3c0-6.9-3.7-9.5-9.6-13.2c-1.1-0.7-2.3-1.4-3.4-2.2c-0.9-0.6-1.9-1.3-3-2
		c-6.5-4.2-16.4-10.5-16.4-22c0-5.7,2.3-10.8,6.5-14.3c4-3.4,9.6-5.3,16-5.3c5.3,0,10.3,1.1,14.7,3.2c2.7,1.3,3.9,4.5,2.6,7.3
		c-1.3,2.7-4.5,3.9-7.3,2.6c-3-1.4-6.3-2.1-10-2.1c-7.3,0-11.6,3.3-11.6,8.7c0,5.1,4.9,8.7,11.3,12.8c1.2,0.8,2.4,1.5,3.4,2.2
		c0.9,0.6,1.8,1.2,2.9,1.9c5.9,3.7,14.8,9.2,14.8,22.5c0,6.5-2.8,12-7.9,15.7C622.1,203.6,616.9,205.2,611.5,205.2z"/>
</g>
<path class="st2" d="M419,251.3c2.3-2.4,3.7-5.6,3.7-9.2c0-7.4-6-13.3-13.3-13.3H396c-1.8,0-3.3,1.5-3.3,3.3c0,0.1,0,0.2,0,0.3l0,0
	v19.7v5.2v14.9c0,1.8,1.5,3.3,3.3,3.3h15.3c7.4,0,13.4-6,13.4-13.4C424.6,257.7,422.4,253.7,419,251.3z M416,242.1
	c0,3.7-3,6.6-6.6,6.7h-10.2v-13.3h10.2C413.1,235.5,416,238.5,416,242.1z M411.3,268.9h-12v-13.4h10.1h0.1h1.8c3.7,0,6.7,3,6.7,6.7
	S415,268.9,411.3,268.9z"/>
<g>
	<path class="st2" d="M349.8,275.6h-22.1c-1.8,0-3.3-1.5-3.3-3.3v-40.1c0-1.8,1.5-3.3,3.3-3.3s3.3,1.5,3.3,3.3v36.7h18.8
		c1.8,0,3.3,1.5,3.3,3.3C353.2,274.1,351.7,275.6,349.8,275.6z"/>
</g>
<path class="st2" d="M389,270.9l-17.8-40.1c-0.5-1.2-1.7-2-3-2s-2.5,0.8-3,2l-17.8,40.1c-0.7,1.7,0,3.7,1.7,4.4
	c0.4,0.2,0.9,0.3,1.3,0.3c1.3,0,2.5-0.7,3-2l6.6-14.9h16.2l6.6,14.9c0.7,1.7,2.7,2.4,4.4,1.7C389,274.5,389.8,272.6,389,270.9z
	 M363,252.1l5.2-11.7l5.2,11.7H363z"/>
<path class="st1" d="M466.8,196.1l-29-65.5c-0.9-2-2.8-3.2-5-3.2s-4.1,1.3-5,3.2l-29,65.5c-1.2,2.7,0,6,2.8,7.2c2.7,1.2,6,0,7.2-2.8
	l10.4-23.4c0.4,0.1,0.9,0.2,1.3,0.2h10.8c2.7,0,4.8-2.2,4.8-4.8s-2.2-4.8-4.8-4.8h-8l9.5-21.4l24,54.3c0.9,2,2.9,3.2,5,3.2
	c0.7,0,1.5-0.2,2.2-0.5C466.8,202.1,468,198.9,466.8,196.1z"/>
</svg>
